<svg version="1.1" xmlns="http://www.w3.org/2000/svg" xmlns:xlink="http://www.w3.org/1999/xlink" x="0px" y="0px"
	width="27.071px" height="100.378px" viewBox="0 0 27.071 100.378" enable-background="new 0 0 27.071 100.378"
	xml:space="preserve">
	<defs>
		<pattern id="water_fill" width=".25" height="1.1" patternContentUnits="objectBoundingBox">
			<path fill="#3348e7"
				d="M0.25,1H0c0,0,0-0.659,0-0.916c0.083-0.303,0.158,0.334,0.25,0C0.25,0.327,0.25,1,0.25,1z">
			</path>
		</pattern>
		<path id="bottle_4" d="M25.474,44.253c-0.564-8.625-3.189-12-5.189-20s-2.5-16-2.5-16s0.438-3.125-0.313-4.625
			c-0.706-1.413-2.247-2.15-3.937-2.128c-1.691-0.022-3.231,0.715-3.938,2.128c-0.75,1.5-0.313,4.625-0.313,4.625s-0.5,8-2.5,16
			s-4.625,11.375-5.189,20c-0.564,8.625,1.564,35.25,0.626,40.625s-1.375,14,2.813,14c3.029,0,6.375,0,8,0c0,0,0.378,0,1,0
			c1.625,0,4.971,0,8,0c4.188,0,3.75-8.625,2.813-14S26.038,52.878,25.474,44.253z"></path>
		<mask id="bottle_mask_4">
			<use x="0" y="0" xlink:href="#bottle_4" opacity="1" fill="#ffffff"></use>
		</mask>
	</defs>
	<rect class="bottle-fill" mask="url(#bottle_mask_4)" fill="url(#water_fill)" x="-400" y="0" width="1600"
		height="120"></rect>
	<path id="btl-out" fill="none" stroke="#3348e769" stroke-width="3" stroke-miterlimit="10" d="M25.474,44.253c-0.564-8.625-3.189-12-5.189-20
			s-2.5-16-2.5-16s0.438-3.125-0.313-4.625c-0.706-1.413-2.247-2.15-3.937-2.128c-1.691-0.022-3.231,0.715-3.938,2.128
			c-0.75,1.5-0.313,4.625-0.313,4.625s-0.5,8-2.5,16s-4.625,11.375-5.189,20c-0.564,8.625,1.564,35.25,0.626,40.625
			s-1.375,14,2.813,14c3.029,0,6.375,0,8,0c0,0,0.378,0,1,0c1.625,0,4.971,0,8,0c4.188,0,3.75-8.625,2.813-14
			S26.038,52.878,25.474,44.253z"></path>
</svg>