<svg viewBox="0 0 24 24" fill="none" xmlns="http://www.w3.org/2000/svg"><path fill-rule="evenodd" clip-rule="evenodd" d="M10.7863 3.18442C9.45257 3.88046 8.05997 4.45729 6.62472 4.90819C5.80632 5.1653 5.16533 5.8063 4.90822 6.6247C4.45732 8.05994 3.88049 9.45254 3.18445 10.7862C2.78756 11.5467 2.78756 12.4533 3.18445 13.2138C3.88049 14.5475 4.45732 15.9401 4.90822 17.3753C5.16533 18.1937 5.80633 18.8347 6.62473 19.0918C8.05997 19.5427 9.45257 20.1195 10.7863 20.8156C11.5468 21.2125 12.4533 21.2125 13.2138 20.8156C14.5475 20.1195 15.9401 19.5427 17.3753 19.0918C18.1937 18.8347 18.8347 18.1937 19.0918 17.3753C19.5427 15.9401 20.1196 14.5475 20.8156 13.2138C21.2125 12.4533 21.2125 11.5467 20.8156 10.7862C20.1196 9.45254 19.5427 8.05994 19.0918 6.6247C18.8347 5.8063 18.1937 5.1653 17.3753 4.90819C15.9401 4.45729 14.5475 3.88046 13.2138 3.18442C12.4533 2.78753 11.5468 2.78753 10.7863 3.18442ZM13.8499 1.96544C12.6908 1.36052 11.3092 1.36052 10.1501 1.96544C8.88821 2.624 7.57058 3.16978 6.21261 3.5964C4.96526 3.98827 3.9883 4.96524 3.59643 6.21258C3.16981 7.57056 2.62403 8.88818 1.96547 10.1501C1.36055 11.3092 1.36055 12.6908 1.96547 13.8499C2.62403 15.1118 3.16981 16.4294 3.59643 17.7874C3.9883 19.0348 4.96526 20.0117 6.21261 20.4036C7.57058 20.8302 8.88821 21.376 10.1501 22.0346C11.3092 22.6395 12.6908 22.6395 13.8499 22.0346C15.1118 21.376 16.4295 20.8302 17.7874 20.4036C19.0348 20.0117 20.0118 19.0348 20.4036 17.7874C20.8302 16.4294 21.376 15.1118 22.0346 13.8499C22.6395 12.6908 22.6395 11.3092 22.0346 10.1501C21.376 8.88818 20.8302 7.57056 20.4036 6.21259C20.0118 4.96524 19.0348 3.98827 17.7874 3.5964C16.4295 3.16978 15.1118 2.624 13.8499 1.96544ZM14.3639 8.58598C14.6201 7.9883 15.2078 7.60078 15.858 7.60078H17.7196L13.6417 17.1156C13.4462 17.5717 12.9977 17.8674 12.5014 17.8674H10.386L14.3639 8.58598ZM6.42651 7.60068H8.24469C8.91673 7.60068 9.51948 8.01422 9.76133 8.64122L11.5833 13.3646L10.0394 16.967L6.42651 7.60068Z" fill="#FFBC47"/></svg>