<svg width="80px" height="80px" viewBox="0 0 80 80" version="1.1" xmlns="http://www.w3.org/2000/svg"
	xmlns:xlink="http://www.w3.org/1999/xlink">
	<g id="页面-4" stroke="none" stroke-width="1" fill="none" fill-rule="evenodd">
		<g id="编组-2备份" transform="translate(-60, -26)" fill-rule="nonzero">
			<g id="sketch" transform="translate(60, 26)">
				<path
					d="M16.3265306,80 L63.6734694,80 C72.6938775,80 80,72.6938776 80,63.6734694 L80,16.3265306 C80,7.30612242 72.6938776,0 63.6734694,0 L16.3265306,0 C7.30612242,0 0,7.30612242 0,16.3265306 L0,63.6734694 C0,72.6938775 7.30612242,80 16.3265306,80 Z"
					id="路径" fill="#FEFEFE"></path>
				<path
					d="M16.0401002,80 L22.4561404,80 L22.4561404,0 L16.0401002,0 C7.17794483,0 0,7.30612242 0,16.3265306 L0,63.6734694 C0,72.6938775 7.17794483,80 16.0401002,80 Z"
					id="路径" fill="#EBEBEB"></path>
				<polygon id="路径" fill="#DADADB"
					points="24.1002506 27.755102 80 27.755102 80 26.122449 24.1002506 26.122449 24.1002506 0 22.4561404 0 22.4561404 80 24.1002506 80">
				</polygon>
				<polygon id="路径" fill="#FFAE00"
					points="71.5789474 31.8698747 57.9302803 13.1763409 40 11.2280702 22.0697197 13.1763409 8.42105263 31.8698747 40 68.7719298">
				</polygon>
				<polygon id="路径" fill="#EC6C00" points="71.5789474 32.2807018 8.42105263 32.2807018 40 68.7719298">
				</polygon>
				<polygon id="路径" fill="#FFAE00" points="58.9473684 32.2807018 21.0526316 32.2807018 40 68.7719298">
				</polygon>
				<polygon id="路径" fill="#FFEFB4" points="21.0526316 32.2807018 58.9473684 32.2807018 40 11.2280702">
				</polygon>
				<path
					d="M22.0697197,14.0350877 L21.3315105,32.2807018 L8.42105263,32.2807018 L15.0485304,23.2261251 L22.0697197,14.0350877 Z M57.9302803,14.0350877 L64.9514696,23.2261251 L71.5789474,32.2807018 L58.6684895,32.2807018 L57.9302803,14.0350877 Z"
					id="形状" fill="#FFAE00"></path>
				<path
					d="M21.928906,13.2151167 L40,11.2280702 L21.0526316,32.2807018 L21.928906,13.2151167 Z M58.071094,13.2151167 L58.9473684,32.2807018 L40,11.2280702 L58.071094,13.2151167 Z"
					id="形状" fill="#FED305"></path>
			</g>
		</g>
	</g>
</svg>