
<svg width="200px" height="146px" viewBox="0 0 200 146" version="1.1" xmlns="http://www.w3.org/2000/svg" xmlns:xlink="http://www.w3.org/1999/xlink">
    <defs>
        <filter x="-93.3%" y="-83.2%" width="286.6%" height="266.4%" filterUnits="objectBoundingBox" id="filter-08e71pktz9-1">
            <feGaussianBlur stdDeviation="3" in="SourceGraphic"></feGaussianBlur>
        </filter>
        <filter x="-119.9%" y="-105.3%" width="339.9%" height="310.7%" filterUnits="objectBoundingBox" id="filter-08e71pktz9-2">
            <feGaussianBlur stdDeviation="3" in="SourceGraphic"></feGaussianBlur>
        </filter>
        <filter x="-90.6%" y="-108.0%" width="281.2%" height="315.9%" filterUnits="objectBoundingBox" id="filter-08e71pktz9-3">
            <feGaussianBlur stdDeviation="3" in="SourceGraphic"></feGaussianBlur>
        </filter>
        <filter x="-119.9%" y="-105.3%" width="339.9%" height="310.7%" filterUnits="objectBoundingBox" id="filter-08e71pktz9-4">
            <feGaussianBlur stdDeviation="3" in="SourceGraphic"></feGaussianBlur>
        </filter>
        <filter x="-90.6%" y="-108.0%" width="281.2%" height="315.9%" filterUnits="objectBoundingBox" id="filter-08e71pktz9-5">
            <feGaussianBlur stdDeviation="3" in="SourceGraphic"></feGaussianBlur>
        </filter>
        <filter x="-83.8%" y="-83.2%" width="267.7%" height="266.4%" filterUnits="objectBoundingBox" id="filter-08e71pktz9-6">
            <feGaussianBlur stdDeviation="3" in="SourceGraphic"></feGaussianBlur>
        </filter>
        <filter x="-123.9%" y="-105.3%" width="347.8%" height="310.7%" filterUnits="objectBoundingBox" id="filter-08e71pktz9-7">
            <feGaussianBlur stdDeviation="3" in="SourceGraphic"></feGaussianBlur>
        </filter>
        <filter x="-136.2%" y="-102.6%" width="372.4%" height="305.3%" filterUnits="objectBoundingBox" id="filter-08e71pktz9-8">
            <feGaussianBlur stdDeviation="3" in="SourceGraphic"></feGaussianBlur>
        </filter>
        <filter x="-193.3%" y="-84.3%" width="486.6%" height="268.7%" filterUnits="objectBoundingBox" id="filter-08e71pktz9-9">
            <feGaussianBlur stdDeviation="3" in="SourceGraphic"></feGaussianBlur>
        </filter>
        <filter x="-106.1%" y="-71.5%" width="312.3%" height="242.9%" filterUnits="objectBoundingBox" id="filter-08e71pktz9-10">
            <feGaussianBlur stdDeviation="3" in="SourceGraphic"></feGaussianBlur>
        </filter>
        <filter x="-90.6%" y="-108.0%" width="281.2%" height="315.9%" filterUnits="objectBoundingBox" id="filter-08e71pktz9-11">
            <feGaussianBlur stdDeviation="3" in="SourceGraphic"></feGaussianBlur>
        </filter>
        <filter x="0.0%" y="0.0%" width="100.0%" height="100.0%" filterUnits="objectBoundingBox" id="filter-08e71pktz9-12">
            <feGaussianBlur stdDeviation="0" in="SourceGraphic"></feGaussianBlur>
        </filter>
        <filter x="0.0%" y="0.0%" width="100.0%" height="100.0%" filterUnits="objectBoundingBox" id="filter-08e71pktz9-13">
            <feGaussianBlur stdDeviation="0" in="SourceGraphic"></feGaussianBlur>
        </filter>
        <filter x="0.0%" y="0.0%" width="100.0%" height="100.0%" filterUnits="objectBoundingBox" id="filter-08e71pktz9-14">
            <feGaussianBlur stdDeviation="0" in="SourceGraphic"></feGaussianBlur>
        </filter>
        <filter x="0.0%" y="0.0%" width="100.0%" height="100.0%" filterUnits="objectBoundingBox" id="filter-08e71pktz9-15">
            <feGaussianBlur stdDeviation="0" in="SourceGraphic"></feGaussianBlur>
        </filter>
        <filter x="0.0%" y="0.0%" width="100.0%" height="100.0%" filterUnits="objectBoundingBox" id="filter-08e71pktz9-16">
            <feGaussianBlur stdDeviation="0" in="SourceGraphic"></feGaussianBlur>
        </filter>
        <filter x="0.0%" y="0.0%" width="100.0%" height="100.0%" filterUnits="objectBoundingBox" id="filter-08e71pktz9-17">
            <feGaussianBlur stdDeviation="0" in="SourceGraphic"></feGaussianBlur>
        </filter>
        <filter x="0.0%" y="0.0%" width="100.0%" height="100.0%" filterUnits="objectBoundingBox" id="filter-08e71pktz9-18">
            <feGaussianBlur stdDeviation="0" in="SourceGraphic"></feGaussianBlur>
        </filter>
        <filter x="0.0%" y="0.0%" width="100.0%" height="100.0%" filterUnits="objectBoundingBox" id="filter-08e71pktz9-19">
            <feGaussianBlur stdDeviation="0" in="SourceGraphic"></feGaussianBlur>
        </filter>
        <filter x="0.0%" y="0.0%" width="100.0%" height="100.0%" filterUnits="objectBoundingBox" id="filter-08e71pktz9-20">
            <feGaussianBlur stdDeviation="0" in="SourceGraphic"></feGaussianBlur>
        </filter>
        <filter x="0.0%" y="0.0%" width="100.0%" height="100.0%" filterUnits="objectBoundingBox" id="filter-08e71pktz9-21">
            <feGaussianBlur stdDeviation="0" in="SourceGraphic"></feGaussianBlur>
        </filter>
        <filter x="0.0%" y="0.0%" width="100.0%" height="100.0%" filterUnits="objectBoundingBox" id="filter-08e71pktz9-22">
            <feGaussianBlur stdDeviation="0" in="SourceGraphic"></feGaussianBlur>
        </filter>
    </defs>
    <g id="页面-4" stroke="none" stroke-width="1" fill="none" fill-rule="evenodd">
        <g id="编组-2" fill="#FFFFFF" fill-rule="nonzero">
            <g id="编组-3" transform="translate(47.836, 108.264)">
                <g id="Ponon-Design">
                    <path d="M2.096,8.608 L2.096,2.192 C2.096,1.40266667 1.824,1.008 1.28,1.008 C1.19466667,1.008 1.08266667,1.01866667 0.944,1.04 C0.741333333,1.072 0.597333333,1.088 0.512,1.088 C0.170666667,1.088 0,0.912 0,0.56 C0,0.186666667 0.234666667,0 0.704,0 C0.778666667,0 0.858666667,0.00533333333 0.944,0.016 L1.728,0.112 C1.984,0.144 2.304,0.16 2.688,0.16 C2.95466667,0.16 3.27466667,0.144 3.648,0.112 C4.52266667,0.0373333333 5.184,0 5.632,0 C6.31466667,0 6.90133333,0.0533333333 7.392,0.16 C8.096,0.309333333 8.648,0.64 9.048,1.152 C9.448,1.664 9.648,2.28266667 9.648,3.008 C9.648,4.01066667 9.304,4.77866667 8.616,5.312 C7.928,5.84533333 6.93333333,6.112 5.632,6.112 L4.496,6.112 C4.144,6.112 3.936,6.10666667 3.872,6.096 L3.84,6.096 C3.66933333,6.096 3.56,6.12533333 3.512,6.184 C3.464,6.24266667 3.44,6.37866667 3.44,6.592 L3.44,6.912 C3.44,8.26666667 3.48,9.088 3.56,9.376 C3.64,9.664 3.872,9.808 4.256,9.808 C4.37333333,9.808 4.48533333,9.792 4.592,9.76 C4.82666667,9.73866667 4.97066667,9.728 5.024,9.728 C5.35466667,9.728 5.52,9.89866667 5.52,10.24 C5.52,10.624 5.28533333,10.816 4.816,10.816 C4.816,10.816 4.74133333,10.8053333 4.592,10.784 L3.792,10.672 C3.568,10.64 3.232,10.624 2.784,10.624 C2.41066667,10.624 2.10666667,10.64 1.872,10.672 L0.944,10.8 C0.922666667,10.8 0.890666667,10.8053333 0.848,10.816 C0.805333333,10.816 0.768,10.816 0.736,10.816 C0.256,10.816 0.016,10.6293333 0.016,10.256 C0.016,10.1066667 0.064,9.98133333 0.16,9.88 C0.256,9.77866667 0.373333333,9.728 0.512,9.728 C0.629333333,9.728 0.773333333,9.744 0.944,9.776 C1.01866667,9.79733333 1.13066667,9.808 1.28,9.808 C1.824,9.808 2.096,9.408 2.096,8.608 Z M3.552,1.36 C3.47733333,1.46666667 3.44,1.76 3.44,2.24 L3.44,4.608 C3.44,4.896 3.64266667,5.06133333 4.048,5.104 C4.016,5.104 4.32533333,5.104 4.976,5.104 C5.73333333,5.104 6.36266667,5.04533333 6.864,4.928 C7.81333333,4.704 8.288,4.08 8.288,3.056 C8.288,1.70133333 7.424,1.024 5.696,1.024 C4.416,1.024 3.70133333,1.136 3.552,1.36 Z" id="形状" filter="url(#filter-08e71pktz9-1)"></path>
                    <path d="M14.208,11.008 C13.088,11.008 12.192,10.6213333 11.52,9.848 C10.848,9.07466667 10.512,8.03733333 10.512,6.736 C10.512,5.43466667 10.8506667,4.39733333 11.528,3.624 C12.2053333,2.85066667 13.1146667,2.464 14.256,2.464 C15.4186667,2.464 16.336,2.84266667 17.008,3.6 C17.68,4.35733333 18.016,5.38666667 18.016,6.688 C18.016,7.98933333 17.6693333,9.03466667 16.976,9.824 C16.2826667,10.6133333 15.36,11.008 14.208,11.008 Z M14.288,3.52 C13.5413333,3.52 12.9546667,3.78133333 12.528,4.304 C12.1013333,4.82666667 11.8666667,5.568 11.824,6.528 C11.824,6.528 11.824,6.59733333 11.824,6.736 C11.824,7.73866667 12.0346667,8.52533333 12.456,9.096 C12.8773333,9.66666667 13.4666667,9.952 14.224,9.952 C15.0026667,9.952 15.6133333,9.66666667 16.056,9.096 C16.4986667,8.52533333 16.72,7.73333333 16.72,6.72 C16.72,4.58666667 15.9093333,3.52 14.288,3.52 Z" id="形状" filter="url(#filter-08e71pktz9-2)"></path>
                    <path d="M21.712,3.232 L21.712,3.68 C22.352,2.86933333 23.2053333,2.464 24.272,2.464 C24.848,2.464 25.392,2.61066667 25.904,2.904 C26.416,3.19733333 26.7626667,3.56266667 26.944,4 C27.0933333,4.36266667 27.168,4.83733333 27.168,5.424 L27.168,8.464 C27.168,8.92266667 27.1733333,9.19466667 27.184,9.28 C27.2373333,9.64266667 27.3813333,9.824 27.616,9.824 C27.712,9.824 27.8373333,9.81066667 27.992,9.784 C28.1466667,9.75733333 28.256,9.744 28.32,9.744 C28.4586667,9.744 28.5786667,9.792 28.68,9.888 C28.7813333,9.984 28.832,10.1013333 28.832,10.24 C28.832,10.4 28.768,10.5333333 28.64,10.64 C28.512,10.7466667 28.3573333,10.8 28.176,10.8 C28.0266667,10.8 27.7813333,10.7786667 27.44,10.736 C27.0986667,10.6933333 26.7786667,10.672 26.48,10.672 C26.2026667,10.672 25.9733333,10.6826667 25.792,10.704 C25.2586667,10.768 24.976,10.8 24.944,10.8 C24.5173333,10.8 24.304,10.6133333 24.304,10.24 C24.304,9.90933333 24.4853333,9.744 24.848,9.744 C24.9333333,9.744 25.0293333,9.75466667 25.136,9.776 C25.3386667,9.81866667 25.4666667,9.84 25.52,9.84 C25.776,9.84 25.9146667,9.54666667 25.936,8.96 L25.968,8.144 L25.984,7.168 L25.984,5.952 C25.984,5.38666667 25.9573333,4.99733333 25.904,4.784 C25.808,4.37866667 25.6,4.064 25.28,3.84 C24.928,3.59466667 24.528,3.472 24.08,3.472 C23.2266667,3.472 22.6133333,3.776 22.24,4.384 C21.984,4.8 21.856,5.50933333 21.856,6.512 L21.856,8.64 C21.856,9.10933333 21.888,9.42933333 21.952,9.6 C22.016,9.77066667 22.1333333,9.856 22.304,9.856 C22.3893333,9.856 22.5066667,9.83466667 22.656,9.792 C22.8053333,9.74933333 22.928,9.728 23.024,9.728 C23.3546667,9.728 23.52,9.90933333 23.52,10.272 C23.52,10.624 23.3066667,10.8 22.88,10.8 C22.7946667,10.8 22.5173333,10.768 22.048,10.704 C21.8133333,10.672 21.552,10.656 21.264,10.656 C21.04,10.656 20.7413333,10.6773333 20.368,10.72 C19.8986667,10.7733333 19.632,10.8 19.568,10.8 C19.12,10.8 18.896,10.6186667 18.896,10.256 C18.896,9.91466667 19.0666667,9.744 19.408,9.744 C19.4613333,9.744 19.56,9.76 19.704,9.792 C19.848,9.824 19.9893333,9.84 20.128,9.84 C20.448,9.84 20.6133333,9.53066667 20.624,8.912 L20.656,7.136 L20.656,5.2 L20.624,4.64 C20.6026667,4.27733333 20.5573333,4.02933333 20.488,3.896 C20.4186667,3.76266667 20.2986667,3.696 20.128,3.696 C20.0533333,3.696 19.944,3.70933333 19.8,3.736 C19.656,3.76266667 19.5466667,3.776 19.472,3.776 C19.088,3.776 18.896,3.60533333 18.896,3.264 C18.896,2.912 19.136,2.736 19.616,2.736 C19.68,2.736 19.7333333,2.74133333 19.776,2.752 L20.368,2.816 C20.5386667,2.816 20.688,2.80533333 20.816,2.784 C21.0933333,2.76266667 21.2373333,2.752 21.248,2.752 C21.5573333,2.752 21.712,2.912 21.712,3.232 Z" id="路径" filter="url(#filter-08e71pktz9-3)"></path>
                    <path d="M33.136,11.008 C32.016,11.008 31.12,10.6213333 30.448,9.848 C29.776,9.07466667 29.44,8.03733333 29.44,6.736 C29.44,5.43466667 29.7786667,4.39733333 30.456,3.624 C31.1333333,2.85066667 32.0426667,2.464 33.184,2.464 C34.3466667,2.464 35.264,2.84266667 35.936,3.6 C36.608,4.35733333 36.944,5.38666667 36.944,6.688 C36.944,7.98933333 36.5973333,9.03466667 35.904,9.824 C35.2106667,10.6133333 34.288,11.008 33.136,11.008 Z M33.216,3.52 C32.4693333,3.52 31.8826667,3.78133333 31.456,4.304 C31.0293333,4.82666667 30.7946667,5.568 30.752,6.528 C30.752,6.528 30.752,6.59733333 30.752,6.736 C30.752,7.73866667 30.9626667,8.52533333 31.384,9.096 C31.8053333,9.66666667 32.3946667,9.952 33.152,9.952 C33.9306667,9.952 34.5413333,9.66666667 34.984,9.096 C35.4266667,8.52533333 35.648,7.73333333 35.648,6.72 C35.648,4.58666667 34.8373333,3.52 33.216,3.52 Z" id="形状" filter="url(#filter-08e71pktz9-4)"></path>
                    <path d="M40.64,3.232 L40.64,3.68 C41.28,2.86933333 42.1333333,2.464 43.2,2.464 C43.776,2.464 44.32,2.61066667 44.832,2.904 C45.344,3.19733333 45.6906667,3.56266667 45.872,4 C46.0213333,4.36266667 46.096,4.83733333 46.096,5.424 L46.096,8.464 C46.096,8.92266667 46.1013333,9.19466667 46.112,9.28 C46.1653333,9.64266667 46.3093333,9.824 46.544,9.824 C46.64,9.824 46.7653333,9.81066667 46.92,9.784 C47.0746667,9.75733333 47.184,9.744 47.248,9.744 C47.3866667,9.744 47.5066667,9.792 47.608,9.888 C47.7093333,9.984 47.76,10.1013333 47.76,10.24 C47.76,10.4 47.696,10.5333333 47.568,10.64 C47.44,10.7466667 47.2853333,10.8 47.104,10.8 C46.9546667,10.8 46.7093333,10.7786667 46.368,10.736 C46.0266667,10.6933333 45.7066667,10.672 45.408,10.672 C45.1306667,10.672 44.9013333,10.6826667 44.72,10.704 C44.1866667,10.768 43.904,10.8 43.872,10.8 C43.4453333,10.8 43.232,10.6133333 43.232,10.24 C43.232,9.90933333 43.4133333,9.744 43.776,9.744 C43.8613333,9.744 43.9573333,9.75466667 44.064,9.776 C44.2666667,9.81866667 44.3946667,9.84 44.448,9.84 C44.704,9.84 44.8426667,9.54666667 44.864,8.96 L44.896,8.144 L44.912,7.168 L44.912,5.952 C44.912,5.38666667 44.8853333,4.99733333 44.832,4.784 C44.736,4.37866667 44.528,4.064 44.208,3.84 C43.856,3.59466667 43.456,3.472 43.008,3.472 C42.1546667,3.472 41.5413333,3.776 41.168,4.384 C40.912,4.8 40.784,5.50933333 40.784,6.512 L40.784,8.64 C40.784,9.10933333 40.816,9.42933333 40.88,9.6 C40.944,9.77066667 41.0613333,9.856 41.232,9.856 C41.3173333,9.856 41.4346667,9.83466667 41.584,9.792 C41.7333333,9.74933333 41.856,9.728 41.952,9.728 C42.2826667,9.728 42.448,9.90933333 42.448,10.272 C42.448,10.624 42.2346667,10.8 41.808,10.8 C41.7226667,10.8 41.4453333,10.768 40.976,10.704 C40.7413333,10.672 40.48,10.656 40.192,10.656 C39.968,10.656 39.6693333,10.6773333 39.296,10.72 C38.8266667,10.7733333 38.56,10.8 38.496,10.8 C38.048,10.8 37.824,10.6186667 37.824,10.256 C37.824,9.91466667 37.9946667,9.744 38.336,9.744 C38.3893333,9.744 38.488,9.76 38.632,9.792 C38.776,9.824 38.9173333,9.84 39.056,9.84 C39.376,9.84 39.5413333,9.53066667 39.552,8.912 L39.584,7.136 L39.584,5.2 L39.552,4.64 C39.5306667,4.27733333 39.4853333,4.02933333 39.416,3.896 C39.3466667,3.76266667 39.2266667,3.696 39.056,3.696 C38.9813333,3.696 38.872,3.70933333 38.728,3.736 C38.584,3.76266667 38.4746667,3.776 38.4,3.776 C38.016,3.776 37.824,3.60533333 37.824,3.264 C37.824,2.912 38.064,2.736 38.544,2.736 C38.608,2.736 38.6613333,2.74133333 38.704,2.752 L39.296,2.816 C39.4666667,2.816 39.616,2.80533333 39.744,2.784 C40.0213333,2.76266667 40.1653333,2.752 40.176,2.752 C40.4853333,2.752 40.64,2.912 40.64,3.232 Z" id="路径" filter="url(#filter-08e71pktz9-5)"></path>
                    <path d="M54.144,2.192 C54.144,1.392 53.872,0.992 53.328,0.992 C53.232,0.992 53.12,1.00266667 52.992,1.024 C52.8,1.056 52.656,1.072 52.56,1.072 C52.2293333,1.072 52.064,0.901333333 52.064,0.56 C52.064,0.186666667 52.304,0 52.784,0 C52.8373333,0 52.9066667,0.00533333333 52.992,0.016 L53.84,0.128 C54.16,0.170666667 54.5013333,0.192 54.864,0.192 C55.1626667,0.192 55.4613333,0.176 55.76,0.144 L56.8,0.032 C57.0026667,0.0106666667 57.2693333,0 57.6,0 C58.5706667,0 59.3813333,0.138666667 60.032,0.416 C60.8853333,0.778666667 61.56,1.408 62.056,2.304 C62.552,3.2 62.8,4.24 62.8,5.424 C62.8,6.46933333 62.6026667,7.41066667 62.208,8.248 C61.8133333,9.08533333 61.2746667,9.70133333 60.592,10.096 C59.7706667,10.576 58.7786667,10.816 57.616,10.816 C57.3813333,10.816 57.1413333,10.8053333 56.896,10.784 L55.792,10.688 C55.4186667,10.656 55.0293333,10.64 54.624,10.64 C54.272,10.64 53.984,10.656 53.76,10.688 L52.992,10.8 C52.9706667,10.8 52.9333333,10.8053333 52.88,10.816 C52.8266667,10.816 52.784,10.816 52.752,10.816 C52.2933333,10.816 52.064,10.6293333 52.064,10.256 C52.064,10.1066667 52.112,9.98133333 52.208,9.88 C52.304,9.77866667 52.4213333,9.728 52.56,9.728 C52.6773333,9.728 52.8213333,9.744 52.992,9.776 C53.0666667,9.79733333 53.1786667,9.808 53.328,9.808 C53.872,9.808 54.144,9.408 54.144,8.608 L54.144,2.192 Z M55.488,2.032 L55.488,8.8 C55.488,9.29066667 55.728,9.58933333 56.208,9.696 C56.368,9.73866667 56.816,9.76 57.552,9.76 C58.832,9.76 59.76,9.41333333 60.336,8.72 C61.0293333,7.888 61.376,6.78933333 61.376,5.424 C61.376,4.35733333 61.1653333,3.45333333 60.744,2.712 C60.3226667,1.97066667 59.744,1.49333333 59.008,1.28 C58.5386667,1.14133333 57.9733333,1.072 57.312,1.072 C56.4693333,1.072 55.9546667,1.12 55.768,1.216 C55.5813333,1.312 55.488,1.584 55.488,2.032 Z" id="形状" filter="url(#filter-08e71pktz9-6)"></path>
                    <path d="M71.296,6.032 C71.296,6.43733333 71.2693333,6.68533333 71.216,6.776 C71.1626667,6.86666667 71.008,6.912 70.752,6.912 L65.664,6.912 C65.5253333,6.912 65.4346667,6.93066667 65.392,6.968 C65.3493333,7.00533333 65.328,7.06666667 65.328,7.152 C65.328,7.952 65.568,8.61866667 66.048,9.152 C66.528,9.68533333 67.1253333,9.952 67.84,9.952 C68.3093333,9.952 68.7386667,9.824 69.128,9.568 C69.5173333,9.312 69.7706667,8.98666667 69.888,8.592 L70.032,8.128 C70.1066667,7.872 70.2826667,7.744 70.56,7.744 C70.9546667,7.744 71.152,7.94666667 71.152,8.352 C71.152,9.04533333 70.8,9.66133333 70.096,10.2 C69.392,10.7386667 68.592,11.008 67.696,11.008 C66.576,11.008 65.6853333,10.632 65.024,9.88 C64.3626667,9.128 64.032,8.11733333 64.032,6.848 C64.032,5.54666667 64.384,4.49066667 65.088,3.68 C65.792,2.86933333 66.7093333,2.464 67.84,2.464 C68.8426667,2.464 69.6693333,2.8 70.32,3.472 C70.9706667,4.144 71.296,4.99733333 71.296,6.032 Z M65.488,5.616 C65.488,5.76533333 65.6053333,5.84 65.84,5.84 L69.664,5.84 C69.888,5.84 70,5.76533333 70,5.616 C70,5.05066667 69.7866667,4.56 69.36,4.144 C68.9333333,3.728 68.432,3.52 67.856,3.52 C67.2586667,3.52 66.7146667,3.736 66.224,4.168 C65.7333333,4.6 65.488,5.08266667 65.488,5.616 Z" id="形状" filter="url(#filter-08e71pktz9-7)"></path>
                    <path d="M75.856,2.464 C76.5706667,2.464 77.168,2.65066667 77.648,3.024 L77.648,2.96 C77.648,2.56533333 77.8186667,2.368 78.16,2.368 C78.512,2.368 78.688,2.53866667 78.688,2.88 C78.688,2.944 78.6773333,3.104 78.656,3.36 C78.6133333,3.57333333 78.592,3.78666667 78.592,4 C78.592,4.128 78.6106667,4.31466667 78.648,4.56 C78.6853333,4.80533333 78.704,4.992 78.704,5.12 C78.704,5.52533333 78.528,5.728 78.176,5.728 C77.8346667,5.728 77.6586667,5.55733333 77.648,5.216 L77.632,4.688 C77.6213333,4.368 77.4373333,4.09333333 77.08,3.864 C76.7226667,3.63466667 76.304,3.52 75.824,3.52 C75.3333333,3.52 74.9226667,3.64533333 74.592,3.896 C74.2613333,4.14666667 74.096,4.45866667 74.096,4.832 C74.096,5.51466667 74.5653333,5.92 75.504,6.048 L76.432,6.176 C78.2453333,6.42133333 79.152,7.17333333 79.152,8.432 C79.152,9.2 78.8586667,9.82133333 78.272,10.296 C77.6853333,10.7706667 76.9173333,11.008 75.968,11.008 C75.0826667,11.008 74.3146667,10.7573333 73.664,10.256 C73.6746667,10.3626667 73.68,10.464 73.68,10.56 C73.68,10.944 73.4986667,11.136 73.136,11.136 C72.7413333,11.136 72.544,10.9173333 72.544,10.48 C72.544,10.5546667 72.576,10.2773333 72.64,9.648 C72.6613333,9.49866667 72.672,9.34933333 72.672,9.2 C72.672,8.944 72.6506667,8.704 72.608,8.48 C72.5653333,8.256 72.544,8.08 72.544,7.952 C72.544,7.57866667 72.7146667,7.392 73.056,7.392 C73.28,7.392 73.4213333,7.44533333 73.48,7.552 C73.5386667,7.65866667 73.5733333,7.94133333 73.584,8.4 C73.5946667,8.85866667 73.8346667,9.232 74.304,9.52 C74.7733333,9.808 75.3706667,9.952 76.096,9.952 C76.6186667,9.952 77.0506667,9.81866667 77.392,9.552 C77.7333333,9.28533333 77.904,8.94933333 77.904,8.544 C77.904,7.81866667 77.328,7.39733333 76.176,7.28 C75.0773333,7.16266667 74.24,6.94666667 73.664,6.632 C73.088,6.31733333 72.8,5.76533333 72.8,4.976 C72.8,4.22933333 73.0826667,3.624 73.648,3.16 C74.2133333,2.696 74.9493333,2.464 75.856,2.464 Z" id="路径" filter="url(#filter-08e71pktz9-8)"></path>
                    <path d="M82.944,6.096 L82.944,8.176 C82.944,8.70933333 82.9493333,9.024 82.96,9.12 C83.0133333,9.6 83.1573333,9.84 83.392,9.84 C83.4453333,9.84 83.5786667,9.81333333 83.792,9.76 C83.8453333,9.73866667 83.9253333,9.728 84.032,9.728 C84.4373333,9.728 84.64,9.904 84.64,10.256 C84.64,10.4053333 84.5733333,10.5333333 84.44,10.64 C84.3066667,10.7466667 84.1386667,10.8 83.936,10.8 C83.7653333,10.8 83.5066667,10.776 83.16,10.728 C82.8133333,10.68 82.5546667,10.656 82.384,10.656 C82.1066667,10.656 81.7973333,10.6773333 81.456,10.72 C81.04,10.7733333 80.7626667,10.8 80.624,10.8 C80.1973333,10.8 79.984,10.6186667 79.984,10.256 C79.984,9.904 80.1653333,9.728 80.528,9.728 C80.6133333,9.728 80.7386667,9.744 80.904,9.776 C81.0693333,9.808 81.1946667,9.824 81.28,9.824 C81.536,9.824 81.6906667,9.48266667 81.744,8.8 C81.744,8.75733333 81.744,8.29333333 81.744,7.408 L81.744,6.096 C81.744,5.21066667 81.744,4.74666667 81.744,4.704 C81.6906667,4.032 81.5306667,3.696 81.264,3.696 C81.1786667,3.696 81.0586667,3.71466667 80.904,3.752 C80.7493333,3.78933333 80.6346667,3.808 80.56,3.808 C80.176,3.808 79.984,3.63733333 79.984,3.296 C79.984,2.93333333 80.2186667,2.752 80.688,2.752 C80.8906667,2.752 81.0346667,2.75733333 81.12,2.768 C81.4613333,2.81066667 81.68,2.832 81.776,2.832 C81.8613333,2.832 81.992,2.81866667 82.168,2.792 C82.344,2.76533333 82.4746667,2.752 82.56,2.752 C82.8693333,2.752 83.024,2.96 83.024,3.376 C83.024,3.41866667 83.0186667,3.48266667 83.008,3.568 C82.9973333,3.65333333 82.992,3.71733333 82.992,3.76 C82.9813333,3.84533333 82.9706667,4.176 82.96,4.752 C82.9493333,5.18933333 82.944,5.63733333 82.944,6.096 Z M82.112,1.904 C81.8666667,1.904 81.656,1.816 81.48,1.64 C81.304,1.464 81.216,1.25333333 81.216,1.008 C81.216,0.762666667 81.304,0.554666667 81.48,0.384 C81.656,0.213333333 81.8666667,0.128 82.112,0.128 C82.3573333,0.128 82.568,0.213333333 82.744,0.384 C82.92,0.554666667 83.008,0.762666667 83.008,1.008 C83.008,1.25333333 82.92,1.464 82.744,1.64 C82.568,1.816 82.3573333,1.904 82.112,1.904 Z" id="形状" filter="url(#filter-08e71pktz9-9)"></path>
                    <path d="M89.104,2.464 C89.3813333,2.464 89.696,2.50666667 90.048,2.592 C90.1013333,1.54666667 90.7093333,1.024 91.872,1.024 C92.3626667,1.024 92.7733333,1.152 93.104,1.408 C93.4346667,1.664 93.6,1.98933333 93.6,2.384 C93.6,2.64 93.5173333,2.85866667 93.352,3.04 C93.1866667,3.22133333 92.992,3.312 92.768,3.312 C92.5973333,3.312 92.448,3.25333333 92.32,3.136 C92.192,3.01866667 92.128,2.88 92.128,2.72 C92.128,2.54933333 92.2453333,2.37333333 92.48,2.192 C92.3093333,1.97866667 92.0906667,1.872 91.824,1.872 C91.2586667,1.872 90.9706667,2.224 90.96,2.928 C91.7706667,3.472 92.176,4.20266667 92.176,5.12 C92.176,5.856 91.8986667,6.46933333 91.344,6.96 C90.7893333,7.45066667 90.096,7.696 89.264,7.696 C88.6773333,7.696 88.0693333,7.55733333 87.44,7.28 C87.2693333,7.20533333 87.1253333,7.168 87.008,7.168 C86.8586667,7.168 86.7253333,7.23466667 86.608,7.368 C86.4906667,7.50133333 86.432,7.65866667 86.432,7.84 C86.432,8.39466667 86.992,8.672 88.112,8.672 L88.208,8.672 C88.2933333,8.672 88.3893333,8.66666667 88.496,8.656 C88.6026667,8.656 88.6666667,8.656 88.688,8.656 C89.7013333,8.656 90.5226667,8.752 91.152,8.944 C91.7386667,9.12533333 92.2026667,9.408 92.544,9.792 C92.8853333,10.176 93.056,10.608 93.056,11.088 C93.056,11.8666667 92.696,12.4826667 91.976,12.936 C91.256,13.3893333 90.2826667,13.616 89.056,13.616 C87.8293333,13.616 86.8666667,13.4026667 86.168,12.976 C85.4693333,12.5493333 85.12,11.9626667 85.12,11.216 C85.12,10.352 85.6053333,9.73866667 86.576,9.376 C85.712,9.03466667 85.28,8.52266667 85.28,7.84 C85.28,7.09333333 85.712,6.58133333 86.576,6.304 C86.2986667,5.93066667 86.16,5.49333333 86.16,4.992 C86.16,4.26666667 86.44,3.664 87,3.184 C87.56,2.704 88.2613333,2.464 89.104,2.464 Z M89.152,3.52 C88.6826667,3.52 88.2826667,3.65866667 87.952,3.936 C87.6213333,4.21333333 87.44,4.56 87.408,4.976 C87.408,4.976 87.408,5.008 87.408,5.072 C87.408,5.54133333 87.568,5.92 87.888,6.208 C88.208,6.496 88.624,6.64 89.136,6.64 C89.6693333,6.64 90.104,6.496 90.44,6.208 C90.776,5.92 90.944,5.552 90.944,5.104 C90.944,4.64533333 90.7733333,4.26666667 90.432,3.968 C90.0906667,3.66933333 89.664,3.52 89.152,3.52 Z M89.168,9.728 C88.3146667,9.728 87.6426667,9.856 87.152,10.112 C86.6613333,10.368 86.416,10.7146667 86.416,11.152 C86.416,11.5893333 86.656,11.9333333 87.136,12.184 C87.616,12.4346667 88.2613333,12.56 89.072,12.56 C89.9253333,12.56 90.6,12.432 91.096,12.176 C91.592,11.92 91.84,11.5786667 91.84,11.152 C91.84,10.704 91.6053333,10.3546667 91.136,10.104 C90.6666667,9.85333333 90.0106667,9.728 89.168,9.728 Z" id="形状" filter="url(#filter-08e71pktz9-10)"></path>
                    <path d="M96.496,3.232 L96.496,3.68 C97.136,2.86933333 97.9893333,2.464 99.056,2.464 C99.632,2.464 100.176,2.61066667 100.688,2.904 C101.2,3.19733333 101.546667,3.56266667 101.728,4 C101.877333,4.36266667 101.952,4.83733333 101.952,5.424 L101.952,8.464 C101.952,8.92266667 101.957333,9.19466667 101.968,9.28 C102.021333,9.64266667 102.165333,9.824 102.4,9.824 C102.496,9.824 102.621333,9.81066667 102.776,9.784 C102.930667,9.75733333 103.04,9.744 103.104,9.744 C103.242667,9.744 103.362667,9.792 103.464,9.888 C103.565333,9.984 103.616,10.1013333 103.616,10.24 C103.616,10.4 103.552,10.5333333 103.424,10.64 C103.296,10.7466667 103.141333,10.8 102.96,10.8 C102.810667,10.8 102.565333,10.7786667 102.224,10.736 C101.882667,10.6933333 101.562667,10.672 101.264,10.672 C100.986667,10.672 100.757333,10.6826667 100.576,10.704 C100.042667,10.768 99.76,10.8 99.728,10.8 C99.3013333,10.8 99.088,10.6133333 99.088,10.24 C99.088,9.90933333 99.2693333,9.744 99.632,9.744 C99.7173333,9.744 99.8133333,9.75466667 99.92,9.776 C100.122667,9.81866667 100.250667,9.84 100.304,9.84 C100.56,9.84 100.698667,9.54666667 100.72,8.96 L100.752,8.144 L100.768,7.168 L100.768,5.952 C100.768,5.38666667 100.741333,4.99733333 100.688,4.784 C100.592,4.37866667 100.384,4.064 100.064,3.84 C99.712,3.59466667 99.312,3.472 98.864,3.472 C98.0106667,3.472 97.3973333,3.776 97.024,4.384 C96.768,4.8 96.64,5.50933333 96.64,6.512 L96.64,8.64 C96.64,9.10933333 96.672,9.42933333 96.736,9.6 C96.8,9.77066667 96.9173333,9.856 97.088,9.856 C97.1733333,9.856 97.2906667,9.83466667 97.44,9.792 C97.5893333,9.74933333 97.712,9.728 97.808,9.728 C98.1386667,9.728 98.304,9.90933333 98.304,10.272 C98.304,10.624 98.0906667,10.8 97.664,10.8 C97.5786667,10.8 97.3013333,10.768 96.832,10.704 C96.5973333,10.672 96.336,10.656 96.048,10.656 C95.824,10.656 95.5253333,10.6773333 95.152,10.72 C94.6826667,10.7733333 94.416,10.8 94.352,10.8 C93.904,10.8 93.68,10.6186667 93.68,10.256 C93.68,9.91466667 93.8506667,9.744 94.192,9.744 C94.2453333,9.744 94.344,9.76 94.488,9.792 C94.632,9.824 94.7733333,9.84 94.912,9.84 C95.232,9.84 95.3973333,9.53066667 95.408,8.912 L95.44,7.136 L95.44,5.2 L95.408,4.64 C95.3866667,4.27733333 95.3413333,4.02933333 95.272,3.896 C95.2026667,3.76266667 95.0826667,3.696 94.912,3.696 C94.8373333,3.696 94.728,3.70933333 94.584,3.736 C94.44,3.76266667 94.3306667,3.776 94.256,3.776 C93.872,3.776 93.68,3.60533333 93.68,3.264 C93.68,2.912 93.92,2.736 94.4,2.736 C94.464,2.736 94.5173333,2.74133333 94.56,2.752 L95.152,2.816 C95.3226667,2.816 95.472,2.80533333 95.6,2.784 C95.8773333,2.76266667 96.0213333,2.752 96.032,2.752 C96.3413333,2.752 96.496,2.912 96.496,3.232 Z" id="路径" filter="url(#filter-08e71pktz9-11)"></path>
                </g>
                <g id="Ponon-Design">
                    <path d="M2.096,8.608 L2.096,2.192 C2.096,1.40266667 1.824,1.008 1.28,1.008 C1.19466667,1.008 1.08266667,1.01866667 0.944,1.04 C0.741333333,1.072 0.597333333,1.088 0.512,1.088 C0.170666667,1.088 0,0.912 0,0.56 C0,0.186666667 0.234666667,0 0.704,0 C0.778666667,0 0.858666667,0.00533333333 0.944,0.016 L1.728,0.112 C1.984,0.144 2.304,0.16 2.688,0.16 C2.95466667,0.16 3.27466667,0.144 3.648,0.112 C4.52266667,0.0373333333 5.184,0 5.632,0 C6.31466667,0 6.90133333,0.0533333333 7.392,0.16 C8.096,0.309333333 8.648,0.64 9.048,1.152 C9.448,1.664 9.648,2.28266667 9.648,3.008 C9.648,4.01066667 9.304,4.77866667 8.616,5.312 C7.928,5.84533333 6.93333333,6.112 5.632,6.112 L4.496,6.112 C4.144,6.112 3.936,6.10666667 3.872,6.096 L3.84,6.096 C3.66933333,6.096 3.56,6.12533333 3.512,6.184 C3.464,6.24266667 3.44,6.37866667 3.44,6.592 L3.44,6.912 C3.44,8.26666667 3.48,9.088 3.56,9.376 C3.64,9.664 3.872,9.808 4.256,9.808 C4.37333333,9.808 4.48533333,9.792 4.592,9.76 C4.82666667,9.73866667 4.97066667,9.728 5.024,9.728 C5.35466667,9.728 5.52,9.89866667 5.52,10.24 C5.52,10.624 5.28533333,10.816 4.816,10.816 C4.816,10.816 4.74133333,10.8053333 4.592,10.784 L3.792,10.672 C3.568,10.64 3.232,10.624 2.784,10.624 C2.41066667,10.624 2.10666667,10.64 1.872,10.672 L0.944,10.8 C0.922666667,10.8 0.890666667,10.8053333 0.848,10.816 C0.805333333,10.816 0.768,10.816 0.736,10.816 C0.256,10.816 0.016,10.6293333 0.016,10.256 C0.016,10.1066667 0.064,9.98133333 0.16,9.88 C0.256,9.77866667 0.373333333,9.728 0.512,9.728 C0.629333333,9.728 0.773333333,9.744 0.944,9.776 C1.01866667,9.79733333 1.13066667,9.808 1.28,9.808 C1.824,9.808 2.096,9.408 2.096,8.608 Z M3.552,1.36 C3.47733333,1.46666667 3.44,1.76 3.44,2.24 L3.44,4.608 C3.44,4.896 3.64266667,5.06133333 4.048,5.104 C4.016,5.104 4.32533333,5.104 4.976,5.104 C5.73333333,5.104 6.36266667,5.04533333 6.864,4.928 C7.81333333,4.704 8.288,4.08 8.288,3.056 C8.288,1.70133333 7.424,1.024 5.696,1.024 C4.416,1.024 3.70133333,1.136 3.552,1.36 Z" id="形状" filter="url(#filter-08e71pktz9-12)"></path>
                    <path d="M14.208,11.008 C13.088,11.008 12.192,10.6213333 11.52,9.848 C10.848,9.07466667 10.512,8.03733333 10.512,6.736 C10.512,5.43466667 10.8506667,4.39733333 11.528,3.624 C12.2053333,2.85066667 13.1146667,2.464 14.256,2.464 C15.4186667,2.464 16.336,2.84266667 17.008,3.6 C17.68,4.35733333 18.016,5.38666667 18.016,6.688 C18.016,7.98933333 17.6693333,9.03466667 16.976,9.824 C16.2826667,10.6133333 15.36,11.008 14.208,11.008 Z M14.288,3.52 C13.5413333,3.52 12.9546667,3.78133333 12.528,4.304 C12.1013333,4.82666667 11.8666667,5.568 11.824,6.528 C11.824,6.528 11.824,6.59733333 11.824,6.736 C11.824,7.73866667 12.0346667,8.52533333 12.456,9.096 C12.8773333,9.66666667 13.4666667,9.952 14.224,9.952 C15.0026667,9.952 15.6133333,9.66666667 16.056,9.096 C16.4986667,8.52533333 16.72,7.73333333 16.72,6.72 C16.72,4.58666667 15.9093333,3.52 14.288,3.52 Z" id="形状" filter="url(#filter-08e71pktz9-13)"></path>
                    <path d="M21.712,3.232 L21.712,3.68 C22.352,2.86933333 23.2053333,2.464 24.272,2.464 C24.848,2.464 25.392,2.61066667 25.904,2.904 C26.416,3.19733333 26.7626667,3.56266667 26.944,4 C27.0933333,4.36266667 27.168,4.83733333 27.168,5.424 L27.168,8.464 C27.168,8.92266667 27.1733333,9.19466667 27.184,9.28 C27.2373333,9.64266667 27.3813333,9.824 27.616,9.824 C27.712,9.824 27.8373333,9.81066667 27.992,9.784 C28.1466667,9.75733333 28.256,9.744 28.32,9.744 C28.4586667,9.744 28.5786667,9.792 28.68,9.888 C28.7813333,9.984 28.832,10.1013333 28.832,10.24 C28.832,10.4 28.768,10.5333333 28.64,10.64 C28.512,10.7466667 28.3573333,10.8 28.176,10.8 C28.0266667,10.8 27.7813333,10.7786667 27.44,10.736 C27.0986667,10.6933333 26.7786667,10.672 26.48,10.672 C26.2026667,10.672 25.9733333,10.6826667 25.792,10.704 C25.2586667,10.768 24.976,10.8 24.944,10.8 C24.5173333,10.8 24.304,10.6133333 24.304,10.24 C24.304,9.90933333 24.4853333,9.744 24.848,9.744 C24.9333333,9.744 25.0293333,9.75466667 25.136,9.776 C25.3386667,9.81866667 25.4666667,9.84 25.52,9.84 C25.776,9.84 25.9146667,9.54666667 25.936,8.96 L25.968,8.144 L25.984,7.168 L25.984,5.952 C25.984,5.38666667 25.9573333,4.99733333 25.904,4.784 C25.808,4.37866667 25.6,4.064 25.28,3.84 C24.928,3.59466667 24.528,3.472 24.08,3.472 C23.2266667,3.472 22.6133333,3.776 22.24,4.384 C21.984,4.8 21.856,5.50933333 21.856,6.512 L21.856,8.64 C21.856,9.10933333 21.888,9.42933333 21.952,9.6 C22.016,9.77066667 22.1333333,9.856 22.304,9.856 C22.3893333,9.856 22.5066667,9.83466667 22.656,9.792 C22.8053333,9.74933333 22.928,9.728 23.024,9.728 C23.3546667,9.728 23.52,9.90933333 23.52,10.272 C23.52,10.624 23.3066667,10.8 22.88,10.8 C22.7946667,10.8 22.5173333,10.768 22.048,10.704 C21.8133333,10.672 21.552,10.656 21.264,10.656 C21.04,10.656 20.7413333,10.6773333 20.368,10.72 C19.8986667,10.7733333 19.632,10.8 19.568,10.8 C19.12,10.8 18.896,10.6186667 18.896,10.256 C18.896,9.91466667 19.0666667,9.744 19.408,9.744 C19.4613333,9.744 19.56,9.76 19.704,9.792 C19.848,9.824 19.9893333,9.84 20.128,9.84 C20.448,9.84 20.6133333,9.53066667 20.624,8.912 L20.656,7.136 L20.656,5.2 L20.624,4.64 C20.6026667,4.27733333 20.5573333,4.02933333 20.488,3.896 C20.4186667,3.76266667 20.2986667,3.696 20.128,3.696 C20.0533333,3.696 19.944,3.70933333 19.8,3.736 C19.656,3.76266667 19.5466667,3.776 19.472,3.776 C19.088,3.776 18.896,3.60533333 18.896,3.264 C18.896,2.912 19.136,2.736 19.616,2.736 C19.68,2.736 19.7333333,2.74133333 19.776,2.752 L20.368,2.816 C20.5386667,2.816 20.688,2.80533333 20.816,2.784 C21.0933333,2.76266667 21.2373333,2.752 21.248,2.752 C21.5573333,2.752 21.712,2.912 21.712,3.232 Z" id="路径" filter="url(#filter-08e71pktz9-14)"></path>
                    <path d="M33.136,11.008 C32.016,11.008 31.12,10.6213333 30.448,9.848 C29.776,9.07466667 29.44,8.03733333 29.44,6.736 C29.44,5.43466667 29.7786667,4.39733333 30.456,3.624 C31.1333333,2.85066667 32.0426667,2.464 33.184,2.464 C34.3466667,2.464 35.264,2.84266667 35.936,3.6 C36.608,4.35733333 36.944,5.38666667 36.944,6.688 C36.944,7.98933333 36.5973333,9.03466667 35.904,9.824 C35.2106667,10.6133333 34.288,11.008 33.136,11.008 Z M33.216,3.52 C32.4693333,3.52 31.8826667,3.78133333 31.456,4.304 C31.0293333,4.82666667 30.7946667,5.568 30.752,6.528 C30.752,6.528 30.752,6.59733333 30.752,6.736 C30.752,7.73866667 30.9626667,8.52533333 31.384,9.096 C31.8053333,9.66666667 32.3946667,9.952 33.152,9.952 C33.9306667,9.952 34.5413333,9.66666667 34.984,9.096 C35.4266667,8.52533333 35.648,7.73333333 35.648,6.72 C35.648,4.58666667 34.8373333,3.52 33.216,3.52 Z" id="形状" filter="url(#filter-08e71pktz9-15)"></path>
                    <path d="M40.64,3.232 L40.64,3.68 C41.28,2.86933333 42.1333333,2.464 43.2,2.464 C43.776,2.464 44.32,2.61066667 44.832,2.904 C45.344,3.19733333 45.6906667,3.56266667 45.872,4 C46.0213333,4.36266667 46.096,4.83733333 46.096,5.424 L46.096,8.464 C46.096,8.92266667 46.1013333,9.19466667 46.112,9.28 C46.1653333,9.64266667 46.3093333,9.824 46.544,9.824 C46.64,9.824 46.7653333,9.81066667 46.92,9.784 C47.0746667,9.75733333 47.184,9.744 47.248,9.744 C47.3866667,9.744 47.5066667,9.792 47.608,9.888 C47.7093333,9.984 47.76,10.1013333 47.76,10.24 C47.76,10.4 47.696,10.5333333 47.568,10.64 C47.44,10.7466667 47.2853333,10.8 47.104,10.8 C46.9546667,10.8 46.7093333,10.7786667 46.368,10.736 C46.0266667,10.6933333 45.7066667,10.672 45.408,10.672 C45.1306667,10.672 44.9013333,10.6826667 44.72,10.704 C44.1866667,10.768 43.904,10.8 43.872,10.8 C43.4453333,10.8 43.232,10.6133333 43.232,10.24 C43.232,9.90933333 43.4133333,9.744 43.776,9.744 C43.8613333,9.744 43.9573333,9.75466667 44.064,9.776 C44.2666667,9.81866667 44.3946667,9.84 44.448,9.84 C44.704,9.84 44.8426667,9.54666667 44.864,8.96 L44.896,8.144 L44.912,7.168 L44.912,5.952 C44.912,5.38666667 44.8853333,4.99733333 44.832,4.784 C44.736,4.37866667 44.528,4.064 44.208,3.84 C43.856,3.59466667 43.456,3.472 43.008,3.472 C42.1546667,3.472 41.5413333,3.776 41.168,4.384 C40.912,4.8 40.784,5.50933333 40.784,6.512 L40.784,8.64 C40.784,9.10933333 40.816,9.42933333 40.88,9.6 C40.944,9.77066667 41.0613333,9.856 41.232,9.856 C41.3173333,9.856 41.4346667,9.83466667 41.584,9.792 C41.7333333,9.74933333 41.856,9.728 41.952,9.728 C42.2826667,9.728 42.448,9.90933333 42.448,10.272 C42.448,10.624 42.2346667,10.8 41.808,10.8 C41.7226667,10.8 41.4453333,10.768 40.976,10.704 C40.7413333,10.672 40.48,10.656 40.192,10.656 C39.968,10.656 39.6693333,10.6773333 39.296,10.72 C38.8266667,10.7733333 38.56,10.8 38.496,10.8 C38.048,10.8 37.824,10.6186667 37.824,10.256 C37.824,9.91466667 37.9946667,9.744 38.336,9.744 C38.3893333,9.744 38.488,9.76 38.632,9.792 C38.776,9.824 38.9173333,9.84 39.056,9.84 C39.376,9.84 39.5413333,9.53066667 39.552,8.912 L39.584,7.136 L39.584,5.2 L39.552,4.64 C39.5306667,4.27733333 39.4853333,4.02933333 39.416,3.896 C39.3466667,3.76266667 39.2266667,3.696 39.056,3.696 C38.9813333,3.696 38.872,3.70933333 38.728,3.736 C38.584,3.76266667 38.4746667,3.776 38.4,3.776 C38.016,3.776 37.824,3.60533333 37.824,3.264 C37.824,2.912 38.064,2.736 38.544,2.736 C38.608,2.736 38.6613333,2.74133333 38.704,2.752 L39.296,2.816 C39.4666667,2.816 39.616,2.80533333 39.744,2.784 C40.0213333,2.76266667 40.1653333,2.752 40.176,2.752 C40.4853333,2.752 40.64,2.912 40.64,3.232 Z" id="路径" filter="url(#filter-08e71pktz9-16)"></path>
                    <path d="M54.144,2.192 C54.144,1.392 53.872,0.992 53.328,0.992 C53.232,0.992 53.12,1.00266667 52.992,1.024 C52.8,1.056 52.656,1.072 52.56,1.072 C52.2293333,1.072 52.064,0.901333333 52.064,0.56 C52.064,0.186666667 52.304,0 52.784,0 C52.8373333,0 52.9066667,0.00533333333 52.992,0.016 L53.84,0.128 C54.16,0.170666667 54.5013333,0.192 54.864,0.192 C55.1626667,0.192 55.4613333,0.176 55.76,0.144 L56.8,0.032 C57.0026667,0.0106666667 57.2693333,0 57.6,0 C58.5706667,0 59.3813333,0.138666667 60.032,0.416 C60.8853333,0.778666667 61.56,1.408 62.056,2.304 C62.552,3.2 62.8,4.24 62.8,5.424 C62.8,6.46933333 62.6026667,7.41066667 62.208,8.248 C61.8133333,9.08533333 61.2746667,9.70133333 60.592,10.096 C59.7706667,10.576 58.7786667,10.816 57.616,10.816 C57.3813333,10.816 57.1413333,10.8053333 56.896,10.784 L55.792,10.688 C55.4186667,10.656 55.0293333,10.64 54.624,10.64 C54.272,10.64 53.984,10.656 53.76,10.688 L52.992,10.8 C52.9706667,10.8 52.9333333,10.8053333 52.88,10.816 C52.8266667,10.816 52.784,10.816 52.752,10.816 C52.2933333,10.816 52.064,10.6293333 52.064,10.256 C52.064,10.1066667 52.112,9.98133333 52.208,9.88 C52.304,9.77866667 52.4213333,9.728 52.56,9.728 C52.6773333,9.728 52.8213333,9.744 52.992,9.776 C53.0666667,9.79733333 53.1786667,9.808 53.328,9.808 C53.872,9.808 54.144,9.408 54.144,8.608 L54.144,2.192 Z M55.488,2.032 L55.488,8.8 C55.488,9.29066667 55.728,9.58933333 56.208,9.696 C56.368,9.73866667 56.816,9.76 57.552,9.76 C58.832,9.76 59.76,9.41333333 60.336,8.72 C61.0293333,7.888 61.376,6.78933333 61.376,5.424 C61.376,4.35733333 61.1653333,3.45333333 60.744,2.712 C60.3226667,1.97066667 59.744,1.49333333 59.008,1.28 C58.5386667,1.14133333 57.9733333,1.072 57.312,1.072 C56.4693333,1.072 55.9546667,1.12 55.768,1.216 C55.5813333,1.312 55.488,1.584 55.488,2.032 Z" id="形状" filter="url(#filter-08e71pktz9-17)"></path>
                    <path d="M71.296,6.032 C71.296,6.43733333 71.2693333,6.68533333 71.216,6.776 C71.1626667,6.86666667 71.008,6.912 70.752,6.912 L65.664,6.912 C65.5253333,6.912 65.4346667,6.93066667 65.392,6.968 C65.3493333,7.00533333 65.328,7.06666667 65.328,7.152 C65.328,7.952 65.568,8.61866667 66.048,9.152 C66.528,9.68533333 67.1253333,9.952 67.84,9.952 C68.3093333,9.952 68.7386667,9.824 69.128,9.568 C69.5173333,9.312 69.7706667,8.98666667 69.888,8.592 L70.032,8.128 C70.1066667,7.872 70.2826667,7.744 70.56,7.744 C70.9546667,7.744 71.152,7.94666667 71.152,8.352 C71.152,9.04533333 70.8,9.66133333 70.096,10.2 C69.392,10.7386667 68.592,11.008 67.696,11.008 C66.576,11.008 65.6853333,10.632 65.024,9.88 C64.3626667,9.128 64.032,8.11733333 64.032,6.848 C64.032,5.54666667 64.384,4.49066667 65.088,3.68 C65.792,2.86933333 66.7093333,2.464 67.84,2.464 C68.8426667,2.464 69.6693333,2.8 70.32,3.472 C70.9706667,4.144 71.296,4.99733333 71.296,6.032 Z M65.488,5.616 C65.488,5.76533333 65.6053333,5.84 65.84,5.84 L69.664,5.84 C69.888,5.84 70,5.76533333 70,5.616 C70,5.05066667 69.7866667,4.56 69.36,4.144 C68.9333333,3.728 68.432,3.52 67.856,3.52 C67.2586667,3.52 66.7146667,3.736 66.224,4.168 C65.7333333,4.6 65.488,5.08266667 65.488,5.616 Z" id="形状" filter="url(#filter-08e71pktz9-18)"></path>
                    <path d="M75.856,2.464 C76.5706667,2.464 77.168,2.65066667 77.648,3.024 L77.648,2.96 C77.648,2.56533333 77.8186667,2.368 78.16,2.368 C78.512,2.368 78.688,2.53866667 78.688,2.88 C78.688,2.944 78.6773333,3.104 78.656,3.36 C78.6133333,3.57333333 78.592,3.78666667 78.592,4 C78.592,4.128 78.6106667,4.31466667 78.648,4.56 C78.6853333,4.80533333 78.704,4.992 78.704,5.12 C78.704,5.52533333 78.528,5.728 78.176,5.728 C77.8346667,5.728 77.6586667,5.55733333 77.648,5.216 L77.632,4.688 C77.6213333,4.368 77.4373333,4.09333333 77.08,3.864 C76.7226667,3.63466667 76.304,3.52 75.824,3.52 C75.3333333,3.52 74.9226667,3.64533333 74.592,3.896 C74.2613333,4.14666667 74.096,4.45866667 74.096,4.832 C74.096,5.51466667 74.5653333,5.92 75.504,6.048 L76.432,6.176 C78.2453333,6.42133333 79.152,7.17333333 79.152,8.432 C79.152,9.2 78.8586667,9.82133333 78.272,10.296 C77.6853333,10.7706667 76.9173333,11.008 75.968,11.008 C75.0826667,11.008 74.3146667,10.7573333 73.664,10.256 C73.6746667,10.3626667 73.68,10.464 73.68,10.56 C73.68,10.944 73.4986667,11.136 73.136,11.136 C72.7413333,11.136 72.544,10.9173333 72.544,10.48 C72.544,10.5546667 72.576,10.2773333 72.64,9.648 C72.6613333,9.49866667 72.672,9.34933333 72.672,9.2 C72.672,8.944 72.6506667,8.704 72.608,8.48 C72.5653333,8.256 72.544,8.08 72.544,7.952 C72.544,7.57866667 72.7146667,7.392 73.056,7.392 C73.28,7.392 73.4213333,7.44533333 73.48,7.552 C73.5386667,7.65866667 73.5733333,7.94133333 73.584,8.4 C73.5946667,8.85866667 73.8346667,9.232 74.304,9.52 C74.7733333,9.808 75.3706667,9.952 76.096,9.952 C76.6186667,9.952 77.0506667,9.81866667 77.392,9.552 C77.7333333,9.28533333 77.904,8.94933333 77.904,8.544 C77.904,7.81866667 77.328,7.39733333 76.176,7.28 C75.0773333,7.16266667 74.24,6.94666667 73.664,6.632 C73.088,6.31733333 72.8,5.76533333 72.8,4.976 C72.8,4.22933333 73.0826667,3.624 73.648,3.16 C74.2133333,2.696 74.9493333,2.464 75.856,2.464 Z" id="路径" filter="url(#filter-08e71pktz9-19)"></path>
                    <path d="M82.944,6.096 L82.944,8.176 C82.944,8.70933333 82.9493333,9.024 82.96,9.12 C83.0133333,9.6 83.1573333,9.84 83.392,9.84 C83.4453333,9.84 83.5786667,9.81333333 83.792,9.76 C83.8453333,9.73866667 83.9253333,9.728 84.032,9.728 C84.4373333,9.728 84.64,9.904 84.64,10.256 C84.64,10.4053333 84.5733333,10.5333333 84.44,10.64 C84.3066667,10.7466667 84.1386667,10.8 83.936,10.8 C83.7653333,10.8 83.5066667,10.776 83.16,10.728 C82.8133333,10.68 82.5546667,10.656 82.384,10.656 C82.1066667,10.656 81.7973333,10.6773333 81.456,10.72 C81.04,10.7733333 80.7626667,10.8 80.624,10.8 C80.1973333,10.8 79.984,10.6186667 79.984,10.256 C79.984,9.904 80.1653333,9.728 80.528,9.728 C80.6133333,9.728 80.7386667,9.744 80.904,9.776 C81.0693333,9.808 81.1946667,9.824 81.28,9.824 C81.536,9.824 81.6906667,9.48266667 81.744,8.8 C81.744,8.75733333 81.744,8.29333333 81.744,7.408 L81.744,6.096 C81.744,5.21066667 81.744,4.74666667 81.744,4.704 C81.6906667,4.032 81.5306667,3.696 81.264,3.696 C81.1786667,3.696 81.0586667,3.71466667 80.904,3.752 C80.7493333,3.78933333 80.6346667,3.808 80.56,3.808 C80.176,3.808 79.984,3.63733333 79.984,3.296 C79.984,2.93333333 80.2186667,2.752 80.688,2.752 C80.8906667,2.752 81.0346667,2.75733333 81.12,2.768 C81.4613333,2.81066667 81.68,2.832 81.776,2.832 C81.8613333,2.832 81.992,2.81866667 82.168,2.792 C82.344,2.76533333 82.4746667,2.752 82.56,2.752 C82.8693333,2.752 83.024,2.96 83.024,3.376 C83.024,3.41866667 83.0186667,3.48266667 83.008,3.568 C82.9973333,3.65333333 82.992,3.71733333 82.992,3.76 C82.9813333,3.84533333 82.9706667,4.176 82.96,4.752 C82.9493333,5.18933333 82.944,5.63733333 82.944,6.096 Z M82.112,1.904 C81.8666667,1.904 81.656,1.816 81.48,1.64 C81.304,1.464 81.216,1.25333333 81.216,1.008 C81.216,0.762666667 81.304,0.554666667 81.48,0.384 C81.656,0.213333333 81.8666667,0.128 82.112,0.128 C82.3573333,0.128 82.568,0.213333333 82.744,0.384 C82.92,0.554666667 83.008,0.762666667 83.008,1.008 C83.008,1.25333333 82.92,1.464 82.744,1.64 C82.568,1.816 82.3573333,1.904 82.112,1.904 Z" id="形状" filter="url(#filter-08e71pktz9-20)"></path>
                    <path d="M89.104,2.464 C89.3813333,2.464 89.696,2.50666667 90.048,2.592 C90.1013333,1.54666667 90.7093333,1.024 91.872,1.024 C92.3626667,1.024 92.7733333,1.152 93.104,1.408 C93.4346667,1.664 93.6,1.98933333 93.6,2.384 C93.6,2.64 93.5173333,2.85866667 93.352,3.04 C93.1866667,3.22133333 92.992,3.312 92.768,3.312 C92.5973333,3.312 92.448,3.25333333 92.32,3.136 C92.192,3.01866667 92.128,2.88 92.128,2.72 C92.128,2.54933333 92.2453333,2.37333333 92.48,2.192 C92.3093333,1.97866667 92.0906667,1.872 91.824,1.872 C91.2586667,1.872 90.9706667,2.224 90.96,2.928 C91.7706667,3.472 92.176,4.20266667 92.176,5.12 C92.176,5.856 91.8986667,6.46933333 91.344,6.96 C90.7893333,7.45066667 90.096,7.696 89.264,7.696 C88.6773333,7.696 88.0693333,7.55733333 87.44,7.28 C87.2693333,7.20533333 87.1253333,7.168 87.008,7.168 C86.8586667,7.168 86.7253333,7.23466667 86.608,7.368 C86.4906667,7.50133333 86.432,7.65866667 86.432,7.84 C86.432,8.39466667 86.992,8.672 88.112,8.672 L88.208,8.672 C88.2933333,8.672 88.3893333,8.66666667 88.496,8.656 C88.6026667,8.656 88.6666667,8.656 88.688,8.656 C89.7013333,8.656 90.5226667,8.752 91.152,8.944 C91.7386667,9.12533333 92.2026667,9.408 92.544,9.792 C92.8853333,10.176 93.056,10.608 93.056,11.088 C93.056,11.8666667 92.696,12.4826667 91.976,12.936 C91.256,13.3893333 90.2826667,13.616 89.056,13.616 C87.8293333,13.616 86.8666667,13.4026667 86.168,12.976 C85.4693333,12.5493333 85.12,11.9626667 85.12,11.216 C85.12,10.352 85.6053333,9.73866667 86.576,9.376 C85.712,9.03466667 85.28,8.52266667 85.28,7.84 C85.28,7.09333333 85.712,6.58133333 86.576,6.304 C86.2986667,5.93066667 86.16,5.49333333 86.16,4.992 C86.16,4.26666667 86.44,3.664 87,3.184 C87.56,2.704 88.2613333,2.464 89.104,2.464 Z M89.152,3.52 C88.6826667,3.52 88.2826667,3.65866667 87.952,3.936 C87.6213333,4.21333333 87.44,4.56 87.408,4.976 C87.408,4.976 87.408,5.008 87.408,5.072 C87.408,5.54133333 87.568,5.92 87.888,6.208 C88.208,6.496 88.624,6.64 89.136,6.64 C89.6693333,6.64 90.104,6.496 90.44,6.208 C90.776,5.92 90.944,5.552 90.944,5.104 C90.944,4.64533333 90.7733333,4.26666667 90.432,3.968 C90.0906667,3.66933333 89.664,3.52 89.152,3.52 Z M89.168,9.728 C88.3146667,9.728 87.6426667,9.856 87.152,10.112 C86.6613333,10.368 86.416,10.7146667 86.416,11.152 C86.416,11.5893333 86.656,11.9333333 87.136,12.184 C87.616,12.4346667 88.2613333,12.56 89.072,12.56 C89.9253333,12.56 90.6,12.432 91.096,12.176 C91.592,11.92 91.84,11.5786667 91.84,11.152 C91.84,10.704 91.6053333,10.3546667 91.136,10.104 C90.6666667,9.85333333 90.0106667,9.728 89.168,9.728 Z" id="形状" filter="url(#filter-08e71pktz9-21)"></path>
                    <path d="M96.496,3.232 L96.496,3.68 C97.136,2.86933333 97.9893333,2.464 99.056,2.464 C99.632,2.464 100.176,2.61066667 100.688,2.904 C101.2,3.19733333 101.546667,3.56266667 101.728,4 C101.877333,4.36266667 101.952,4.83733333 101.952,5.424 L101.952,8.464 C101.952,8.92266667 101.957333,9.19466667 101.968,9.28 C102.021333,9.64266667 102.165333,9.824 102.4,9.824 C102.496,9.824 102.621333,9.81066667 102.776,9.784 C102.930667,9.75733333 103.04,9.744 103.104,9.744 C103.242667,9.744 103.362667,9.792 103.464,9.888 C103.565333,9.984 103.616,10.1013333 103.616,10.24 C103.616,10.4 103.552,10.5333333 103.424,10.64 C103.296,10.7466667 103.141333,10.8 102.96,10.8 C102.810667,10.8 102.565333,10.7786667 102.224,10.736 C101.882667,10.6933333 101.562667,10.672 101.264,10.672 C100.986667,10.672 100.757333,10.6826667 100.576,10.704 C100.042667,10.768 99.76,10.8 99.728,10.8 C99.3013333,10.8 99.088,10.6133333 99.088,10.24 C99.088,9.90933333 99.2693333,9.744 99.632,9.744 C99.7173333,9.744 99.8133333,9.75466667 99.92,9.776 C100.122667,9.81866667 100.250667,9.84 100.304,9.84 C100.56,9.84 100.698667,9.54666667 100.72,8.96 L100.752,8.144 L100.768,7.168 L100.768,5.952 C100.768,5.38666667 100.741333,4.99733333 100.688,4.784 C100.592,4.37866667 100.384,4.064 100.064,3.84 C99.712,3.59466667 99.312,3.472 98.864,3.472 C98.0106667,3.472 97.3973333,3.776 97.024,4.384 C96.768,4.8 96.64,5.50933333 96.64,6.512 L96.64,8.64 C96.64,9.10933333 96.672,9.42933333 96.736,9.6 C96.8,9.77066667 96.9173333,9.856 97.088,9.856 C97.1733333,9.856 97.2906667,9.83466667 97.44,9.792 C97.5893333,9.74933333 97.712,9.728 97.808,9.728 C98.1386667,9.728 98.304,9.90933333 98.304,10.272 C98.304,10.624 98.0906667,10.8 97.664,10.8 C97.5786667,10.8 97.3013333,10.768 96.832,10.704 C96.5973333,10.672 96.336,10.656 96.048,10.656 C95.824,10.656 95.5253333,10.6773333 95.152,10.72 C94.6826667,10.7733333 94.416,10.8 94.352,10.8 C93.904,10.8 93.68,10.6186667 93.68,10.256 C93.68,9.91466667 93.8506667,9.744 94.192,9.744 C94.2453333,9.744 94.344,9.76 94.488,9.792 C94.632,9.824 94.7733333,9.84 94.912,9.84 C95.232,9.84 95.3973333,9.53066667 95.408,8.912 L95.44,7.136 L95.44,5.2 L95.408,4.64 C95.3866667,4.27733333 95.3413333,4.02933333 95.272,3.896 C95.2026667,3.76266667 95.0826667,3.696 94.912,3.696 C94.8373333,3.696 94.728,3.70933333 94.584,3.736 C94.44,3.76266667 94.3306667,3.776 94.256,3.776 C93.872,3.776 93.68,3.60533333 93.68,3.264 C93.68,2.912 93.92,2.736 94.4,2.736 C94.464,2.736 94.5173333,2.74133333 94.56,2.752 L95.152,2.816 C95.3226667,2.816 95.472,2.80533333 95.6,2.784 C95.8773333,2.76266667 96.0213333,2.752 96.032,2.752 C96.3413333,2.752 96.496,2.912 96.496,3.232 Z" id="路径" filter="url(#filter-08e71pktz9-22)"></path>
                </g>
            </g>
        </g>
    </g>
</svg>